<svg xmlns="http://www.w3.org/2000/svg" viewBox="0 0 1024 1024" width="1024" height="1024">
  <defs>
    <linearGradient id="bg" x1="0" y1="0" x2="0" y2="1">
      <stop offset="0" stop-color="#e4ecec"></stop>
      <stop offset="0.5" stop-color="#c9dbdc"></stop>
      <stop offset="1" stop-color="#9fb9be"></stop>
    </linearGradient>
    <radialGradient id="sun" cx="33.30078125%" cy="65.8203125%" r="26%">
      <stop offset="0" stop-color="#fbe7c4"></stop>
      <stop offset="0.6" stop-color="#f4d4a8" stop-opacity="0.85"></stop>
      <stop offset="1" stop-color="#f4d4a8" stop-opacity="0"></stop>
    </radialGradient>
  </defs>
  <rect width="1024" height="1024" fill="url(#bg)"></rect>
  <circle cx="341" cy="674" r="214" fill="url(#sun)"></circle>
  <path d="M 341.00 688.92 C 344.07 690.10, 347.58 690.61, 351.38 690.36 C 351.38 690.36, 355.15 689.07, 359.01 687.08 C 359.01 687.08, 362.32 684.03, 365.55 680.30 C 365.55 680.30, 367.62 675.68, 368.93 670.47 C 368.93 670.47, 368.95 664.92, 368.09 659.11 C 368.09 659.11, 366.13 653.21, 362.52 647.99 C 362.52 647.99, 357.91 643.25, 352.50 638.61 C 352.50 638.61, 345.82 635.88, 338.47 633.80 C 338.47 633.80, 330.58 633.43, 322.85 635.43 C 322.85 635.43, 314.78 637.91, 307.84 642.86 C 307.84 642.86, 300.85 648.52, 295.63 656.04 C 295.63 656.04, 291.11 664.48, 289.24 674.00 C 289.24 674.00, 289.67 683.79, 289.53 694.38 C 289.53 694.38, 293.95 703.86, 298.37 714.03 C 298.37 714.03, 305.95 722.24, 315.31 728.60 C 315.31 728.60, 325.46 734.52, 337.07 736.52 C 337.07 736.52, 349.10 738.10, 361.69 737.68 C 361.69 737.68, 373.08 732.35, 384.37 726.42 C 384.37 726.42, 395.52 719.10, 405.23 709.31 C 405.23 709.31, 411.42 696.88, 416.16 683.50 C 416.16 683.50, 418.40 669.13, 416.96 654.50 C 416.96 654.50, 413.29 639.98, 405.50 627.14 C 405.50 627.14, 397.24 614.11, 386.09 602.95 C 386.09 602.95, 372.91 593.40, 357.24 588.85 C 357.24 588.85, 341.00 585.67, 324.15 585.67 C 324.15 585.67, 307.26 588.77, 290.67 594.70 C 290.67 594.70, 275.48 604.22, 262.96 617.30 C 262.96 617.30, 253.44 632.80, 244.60 649.25 C 244.60 649.25, 240.14 667.65, 240.25 686.73 C 240.25 686.73, 240.92 706.52, 247.85 725.21 C 247.85 725.21, 258.51 742.24, 271.92 757.51 C 271.92 757.51, 287.46 771.38, 306.47 780.29 C 306.47 780.29, 327.23 783.03, 347.99 785.16 C 347.99 785.16, 369.63 785.50, 391.33 780.96 C 391.33 780.96, 409.83 768.73, 428.15 755.84 C 428.15 755.84, 442.10 738.16, 454.53 718.95 C 454.53 718.95, 462.83 697.24, 466.63 674.00 C 466.63 674.00, 464.91 650.36, 461.39 626.33 C 461.39 626.33, 449.05 605.43, 438.27 582.66 C 438.27 582.66, 419.36 566.14, 398.62 551.54 C 398.62 551.54, 375.05 541.39, 349.46 539.51 C 349.46 539.51, 323.70 537.07, 298.30 542.59 C 298.30 542.59, 272.41 549.23, 249.03 562.83 C 249.03 562.83, 229.30 581.59, 211.03 602.55 C 211.03 602.55, 198.53 627.71, 190.97 655.05 C 190.97 655.05, 190.64 683.46, 192.15 712.22 C 192.15 712.22, 200.32 740.20, 214.59 765.84 C 214.59 765.84, 234.77 787.12, 256.22 807.60 C 256.22 807.60, 281.61 824.00, 310.92 831.69 L 310.92 831.69 L 341.00 836.00 C 704.00 836.40, 1037.00 835.70, 1067.00 836.00" fill="none" stroke="#3f6670" stroke-width="15" stroke-linecap="round" stroke-linejoin="round"></path>
</svg>